HIERARCHY
ROOT Hips
{
	OFFSET -8.665500 -1.496397 44.816700
	CHANNELS 6 Xposition Yposition Zposition Zrotation Xrotation Yrotation
	JOINT Chest
	{
		OFFSET -0.698600 0.806100 5.350899
		CHANNELS 6 Xposition Yposition Zposition Zrotation Xrotation Yrotation
		JOINT Chest2
		{
			OFFSET 0.000000 0.000000 4.409100
			CHANNELS 6 Xposition Yposition Zposition Zrotation Xrotation Yrotation
			JOINT Neck
			{
				OFFSET 0.000000 0.000001 10.248299
				CHANNELS 6 Xposition Yposition Zposition Zrotation Xrotation Yrotation
				JOINT Head
				{
					OFFSET 0.000000 0.000000 2.173897
					CHANNELS 6 Xposition Yposition Zposition Zrotation Xrotation Yrotation
					End Site
					{
						OFFSET 0.000000 0.000001 9.966400
					}
				}
			}
			JOINT LeftCollar
			{
				OFFSET 2.100600 -0.520900 6.016098
				CHANNELS 6 Xposition Yposition Zposition Zrotation Xrotation Yrotation
				JOINT LeftShoulder
				{
					OFFSET 5.536700 0.000000 0.000000
					CHANNELS 6 Xposition Yposition Zposition Zrotation Xrotation Yrotation
					JOINT LeftElbow
					{
						OFFSET 0.000000 -0.000001 -12.362099
						CHANNELS 6 Xposition Yposition Zposition Zrotation Xrotation Yrotation
						JOINT LeftWrist
						{
							OFFSET 0.000000 -0.000001 -10.273201
							CHANNELS 6 Xposition Yposition Zposition Zrotation Xrotation Yrotation
							End Site
							{
								OFFSET 0.000000 -0.000000 -2.173901
							}
						}
					}
				}
			}
			JOINT RightCollar
			{
				OFFSET -2.899500 -1.655900 6.981701
				CHANNELS 6 Xposition Yposition Zposition Zrotation Xrotation Yrotation
				JOINT RightShoulder
				{
					OFFSET -4.387501 0.000000 0.000000
					CHANNELS 6 Xposition Yposition Zposition Zrotation Xrotation Yrotation
					JOINT RightElbow
					{
						OFFSET 0.000000 -0.000001 -10.858101
						CHANNELS 6 Xposition Yposition Zposition Zrotation Xrotation Yrotation
						JOINT RightWrist
						{
							OFFSET 0.000000 -0.000001 -12.079601
							CHANNELS 6 Xposition Yposition Zposition Zrotation Xrotation Yrotation
							End Site
							{
								OFFSET 0.000000 0.000000 -2.173901
							}
						}
					}
				}
			}
		}
	}
	JOINT LeftHip
	{
		OFFSET 2.190800 0.073900 -2.522499
		CHANNELS 6 Xposition Yposition Zposition Zrotation Xrotation Yrotation
		JOINT LeftKnee
		{
			OFFSET 0.000000 -0.000002 -20.305000
			CHANNELS 6 Xposition Yposition Zposition Zrotation Xrotation Yrotation
			JOINT LeftAnkle
			{
				OFFSET 0.000000 -0.000001 -16.771700
				CHANNELS 6 Xposition Yposition Zposition Zrotation Xrotation Yrotation
				End Site
				{
					OFFSET 0.000000 -8.738000 0.000001
				}
			}
		}
	}
	JOINT RightHip
	{
		OFFSET -2.029500 0.054300 -2.705200
		CHANNELS 6 Xposition Yposition Zposition Zrotation Xrotation Yrotation
		JOINT RightKnee
		{
			OFFSET 0.000000 -0.000002 -20.030399
			CHANNELS 6 Xposition Yposition Zposition Zrotation Xrotation Yrotation
			JOINT RightAnkle
			{
				OFFSET 0.000000 -0.000001 -17.032700
				CHANNELS 6 Xposition Yposition Zposition Zrotation Xrotation Yrotation
				End Site
				{
					OFFSET 0.000000 -8.823600 0.000001
				}
			}
		}
	}
}
MOTION
Frames: 4
Frame Time: 0.041667
-14.115704 23.193903 25.864597 2936.720375 47.022683 7.673681 -0.698600 0.806099 5.350903 56.913326 -1.762682 23.570141 0.000001 -0.000001 4.409101 -0.291899 -3.521644 -0.200687 0.000001 -0.000003 10.248299 -29.275188 24.556002 6.162717 -0.000000 -0.000005 2.173898 0.152324 4.393316 -3.044026 2.100600 -0.520902 6.016101 -17.053924 14.465757 3.979575 5.536696 0.000009 0.000001 278.821272 -18.513918 -118.716174 -0.000005 0.000007 -12.362101 7.160887 -131.058093 22.567305 -0.000002 -0.000002 -10.273202 2292.504364 164.911325 -186.431065 -2.899498 -1.655903 6.981697 47.592878 27.932805 -25.676430 -4.387499 -0.000000 -0.000006 -161.028717 -518.972035 644.785212 -0.000001 -0.000004 -10.858096 155.388771 -180.770204 185.138616 0.000003 -0.000008 -12.079601 247.022862 -158.841527 111.624436 2.190799 0.073899 -2.522491 -401.630122 -176.488837 -49.912137 -0.000006 -0.000003 -20.305012 -874.559496 -7.599362 121.869126 -0.000001 0.000003 -16.771706 1515.690776 1.074205 52.006283 -2.029496 0.054297 -2.705194 -85.983858 -34.657818 -102.024605 0.000000 -0.000003 -20.030392 -174.092315 1.603000 -124.820969 -0.000003 -0.000004 -17.032698 399.039677 62.489879 -130.349734
-14.035200 23.254902 26.209702 2936.541807 46.888009 7.696339 -0.698598 0.806101 5.350901 56.973278 -2.190735 23.636681 -0.000001 -0.000001 4.409107 -0.356044 -3.519273 -0.195334 0.000003 -0.000002 10.248302 -29.215192 24.373276 6.356607 0.000001 -0.000005 2.173895 0.450572 4.384475 -3.369763 2.100602 -0.520901 6.016102 -16.728040 14.142141 4.135061 5.536696 0.000006 0.000000 278.963832 -18.377638 -118.088752 -0.000001 -0.000002 -12.362101 6.715478 -131.103295 22.137053 0.000001 -0.000002 -10.273203 2292.351586 164.807356 -186.319064 -2.899501 -1.655900 6.981698 48.168864 28.121958 -25.627901 -4.387503 -0.000003 0.000000 -159.443239 -514.424549 646.116990 0.000001 -0.000001 -10.858101 159.059328 -181.023345 185.259114 0.000001 0.000002 -12.079601 248.177710 -158.762597 112.289649 2.190802 0.073895 -2.522497 -402.166046 -176.011106 -50.808339 -0.000006 -0.000005 -20.305014 -874.790685 -7.357084 121.213673 -0.000001 0.000004 -16.771704 1515.927046 0.878602 51.963307 -2.029496 0.054297 -2.705200 -85.901349 -34.721287 -101.668199 -0.000003 -0.000003 -20.030397 -174.578884 1.283667 -123.922895 -0.000001 -0.000003 -17.032698 398.217623 62.008426 -129.999059
-13.957102 23.320299 26.551701 2936.487165 46.718975 7.571727 -0.698601 0.806100 5.350895 56.994186 -2.502378 23.675384 0.000003 -0.000001 4.409104 -0.373954 -3.516366 -0.188030 0.000003 0.000000 10.248302 -29.052968 24.128693 6.411712 0.000005 0.000001 2.173900 0.433756 4.375695 -3.416306 2.100605 -0.520903 6.016103 -16.901506 14.116115 4.484686 5.536694 0.000013 -0.000001 279.441890 -18.213499 -117.901674 -0.000004 0.000005 -12.362104 6.253244 -131.123663 21.575642 0.000003 -0.000002 -10.273194 2292.143730 164.824062 -186.351562 -2.899497 -1.655902 6.981696 49.039911 28.429896 -25.887522 -4.387500 0.000001 0.000002 -159.283549 -513.452531 647.060976 0.000004 0.000001 -10.858102 158.656948 -181.052059 185.452313 -0.000001 -0.000005 -12.079596 249.401270 -158.797814 112.544702 2.190802 0.073898 -2.522497 -402.683802 -175.430417 -51.770153 -0.000007 -0.000003 -20.305010 -874.676047 -7.462929 120.542894 -0.000000 0.000007 -16.771704 1516.463516 0.667370 52.103955 -2.029501 0.054299 -2.705201 -85.891036 -34.494542 -101.252780 -0.000003 -0.000004 -20.030399 -174.728028 0.988571 -123.041432 -0.000004 -0.000003 -17.032698 397.509742 61.593478 -129.656634
-13.884997 23.382502 26.901201 2936.248710 46.612329 7.633686 -0.698599 0.806099 5.350895 57.148159 -2.818123 23.748561 -0.000001 0.000000 4.409104 -0.461255 -3.536730 -0.186659 -0.000002 -0.000003 10.248302 -29.012950 23.828595 6.582224 0.000002 0.000004 2.173901 0.540784 4.280632 -3.450655 2.100599 -0.520900 6.016099 -16.600879 13.871885 4.505841 5.536694 0.000012 -0.000002 279.498116 -18.402606 -117.505987 -0.000002 0.000002 -12.362099 5.571955 -131.174685 21.098820 0.000000 -0.000002 -10.273206 2291.890630 164.778806 -186.261335 -2.899501 -1.655898 6.981700 49.750183 28.616563 -25.984345 -4.387505 -0.000001 -0.000002 -159.263209 -513.734427 647.421064 -0.000001 -0.000001 -10.858099 157.776837 -181.247799 186.388650 0.000002 -0.000002 -12.079599 249.907333 -158.249814 112.867298 2.190808 0.073897 -2.522503 -403.101345 -174.943438 -52.625207 -0.000007 -0.000001 -20.305008 -874.632498 -7.526298 119.839330 0.000000 0.000005 -16.771706 1516.949935 0.512298 52.167626 -2.029498 0.054294 -2.705199 -85.852534 -34.515497 -100.964778 -0.000002 -0.000004 -20.030394 -175.092377 0.976964 -122.179735 -0.000001 -0.000003 -17.032700 398.397175 61.613928 -129.391882
